HIERARCHY
ROOT joint_Root
{
	OFFSET 0.0 0.0 0.0
	CHANNELS 6 Xposition Yposition Zposition Zrotation Xrotation Yrotation 
	JOINT Hips
	{
		OFFSET 4.5925 91.4895 -427.239
		CHANNELS 6 Xposition Yposition Zposition Zrotation Xrotation Yrotation 
		JOINT Spine
		{
			OFFSET 15.7357 0.0 0.0
			CHANNELS 6 Xposition Yposition Zposition Zrotation Xrotation Yrotation 
			JOINT Chest
			{
				OFFSET 8.98455 -0.406207 0.0
				CHANNELS 6 Xposition Yposition Zposition Zrotation Xrotation Yrotation 
				JOINT Neck
				{
					OFFSET 16.3773 0.0 0.0
					CHANNELS 6 Xposition Yposition Zposition Zrotation Xrotation Yrotation 
					JOINT Head
					{
						OFFSET 6.45672 0.0 0.0
						CHANNELS 6 Xposition Yposition Zposition Zrotation Xrotation Yrotation 
						End Site
						{
							OFFSET 0.0 0.0 0.0
						}
					}
				}
				JOINT Shoulder_L
				{
					OFFSET 12.9942 -0.242716 4.98039
					CHANNELS 6 Xposition Yposition Zposition Zrotation Xrotation Yrotation 
					JOINT UpperArm_L
					{
						OFFSET 5.34809 0.0 0.0
						CHANNELS 6 Xposition Yposition Zposition Zrotation Xrotation Yrotation 
						JOINT LowerArm_L
						{
							OFFSET 24.3286 1.87007e-05 0.0
							CHANNELS 6 Xposition Yposition Zposition Zrotation Xrotation Yrotation 
							JOINT Hand_L
							{
								OFFSET 22.2916 0.0 0.0
								CHANNELS 6 Xposition Yposition Zposition Zrotation Xrotation Yrotation 
								End Site
								{
									OFFSET 0.0 0.0 0.0
								}
							}
						}
					}
				}
				JOINT Shoulder_R
				{
					OFFSET 12.9945 -0.242716 -4.98039
					CHANNELS 6 Xposition Yposition Zposition Zrotation Xrotation Yrotation 
					JOINT UpperArm_R
					{
						OFFSET -5.34813 0.0 0.0
						CHANNELS 6 Xposition Yposition Zposition Zrotation Xrotation Yrotation 
						JOINT LowerArm_R
						{
							OFFSET -24.3289 0.000322201 0.0
							CHANNELS 6 Xposition Yposition Zposition Zrotation Xrotation Yrotation 
							JOINT Hand_R
							{
								OFFSET -22.2915 -0.000108084 0.0
								CHANNELS 6 Xposition Yposition Zposition Zrotation Xrotation Yrotation 
								End Site
								{
									OFFSET 0.0 0.0 0.0
								}
							}
						}
					}
				}
			}
		}
		JOINT UpperLeg_L
		{
			OFFSET -2.19248 -6.46944 0.0
			CHANNELS 6 Xposition Yposition Zposition Zrotation Xrotation Yrotation 
			JOINT LowerLeg_L
			{
				OFFSET 39.0811 0.0 -1.23785e-05
				CHANNELS 6 Xposition Yposition Zposition Zrotation Xrotation Yrotation 
				JOINT Foot_L
				{
					OFFSET 40.9854 0.0 -1.26872e-05
					CHANNELS 6 Xposition Yposition Zposition Zrotation Xrotation Yrotation 
					JOINT Toes_L
					{
						OFFSET 11.7543 0.0 0.0
						CHANNELS 6 Xposition Yposition Zposition Zrotation Xrotation Yrotation 
						End Site
						{
							OFFSET 0.0 0.0 0.0
						}
					}
				}
			}
		}
		JOINT UpperLeg_R
		{
			OFFSET -2.19251 6.46944 0.0
			CHANNELS 6 Xposition Yposition Zposition Zrotation Xrotation Yrotation 
			JOINT LowerLeg_R
			{
				OFFSET -39.0811 -0.00228153 -0.0401928
				CHANNELS 6 Xposition Yposition Zposition Zrotation Xrotation Yrotation 
				JOINT Foot_R
				{
					OFFSET -40.9854 0.0 0.0
					CHANNELS 6 Xposition Yposition Zposition Zrotation Xrotation Yrotation 
					JOINT Toes_R
					{
						OFFSET -11.7543 0.0 0.0
						CHANNELS 6 Xposition Yposition Zposition Zrotation Xrotation Yrotation 
						End Site
						{
							OFFSET 0.0 0.0 0.0
						}
					}
				}
			}
		}
	}
}
MOTION
Frames:	4
Frame Time:	0.0333333
0.000000 0.000000 0.000000 0.000000 0.000000 -0.000000 -0.884151 92.722500 -2.681550 88.234300 8.024040 2.354640 15.735700 0.000005 -0.000001 89.802700 86.163100 -93.056900 8.984550 -0.406207 -0.000000 -0.078296 0.196115 -6.504200 16.377300 -0.000001 -0.000001 2.075190 -5.188890 5.252600 6.456720 -0.000001 -0.000000 -5.006130 -4.205040 2.817300 12.994200 -0.242716 4.980390 -91.928900 4.736240 -67.810200 5.348090 -0.000007 -0.000001 -60.001100 8.130060 1.580740 24.328600 0.000019 0.000005 10.281800 20.483200 -27.402900 22.291600 -0.000001 0.000005 14.409800 5.171080 3.434050 12.994500 -0.242716 -4.980390 94.203100 -10.645600 -68.307100 -5.348130 -0.000001 -0.000004 -24.597800 -66.158300 -59.239900 -24.328900 0.000322 -0.000009 -4.183450 -2.231600 -61.960900 -22.291500 -0.000108 -0.000004 24.358500 5.530050 -7.793980 -2.192480 -6.469440 -0.000000 -174.874000 -13.062300 -6.224540 39.081100 -0.000007 -0.000012 -0.016498 0.042964 21.006800 40.985400 -0.000006 -0.000013 1.973970 17.973400 -63.258100 11.754300 -0.000000 0.000003 -0.000054 -0.000604 -16.601000 -2.192510 6.469440 -0.000001 178.071000 29.150800 178.899000 -39.081100 -0.002282 -0.040193 0.006475 -0.009822 17.778500 -40.985400 0.000008 0.000006 5.795610 16.323900 -64.747500 -11.754300 -0.000006 -0.000006 -0.002915 -0.039631 -18.184800
0.000000 0.000000 0.000000 0.000000 0.000000 -0.000000 -0.604770 92.704100 -2.887540 88.320800 7.177360 2.535250 15.735700 0.000005 -0.000001 89.355300 86.035500 -92.411600 8.984550 -0.406207 -0.000000 0.172738 0.113133 -6.108720 16.377300 -0.000001 -0.000001 1.967440 -4.800110 4.999430 6.456720 -0.000001 -0.000000 -4.887590 -4.062970 3.218950 12.994200 -0.242716 4.980390 -92.017800 4.970130 -67.870600 5.348090 -0.000007 -0.000001 -61.004300 9.816070 0.446655 24.328600 0.000019 0.000005 9.700240 22.178800 -24.362200 22.291600 -0.000001 0.000005 14.609700 5.149300 3.959580 12.994500 -0.242716 -4.980390 93.578900 -9.403020 -69.052200 -5.348130 -0.000001 -0.000004 -22.596200 -62.415600 -53.587700 -24.328900 0.000322 -0.000009 -4.012260 -1.450440 -70.155800 -22.291500 -0.000108 -0.000004 23.318400 5.511160 -6.987170 -2.192480 -6.469440 -0.000000 -175.123000 -13.580000 -6.100050 39.081100 -0.000007 -0.000012 -0.013153 0.033928 21.190500 40.985400 -0.000006 -0.000013 2.168970 17.619200 -63.345800 11.754300 -0.000000 0.000003 -0.000052 -0.000588 -16.600400 -2.192510 6.469440 -0.000001 177.718000 28.829000 178.857000 -39.081100 -0.002282 -0.040193 0.007119 -0.011710 17.950000 -40.985400 0.000008 0.000006 5.796680 16.849600 -64.844600 -11.754300 -0.000006 -0.000006 -0.003229 -0.043167 -18.328700
0.000000 0.000000 0.000000 0.000000 0.000000 -0.000000 -0.375793 92.684800 -3.066600 88.335400 6.279030 2.781160 15.735700 0.000005 -0.000001 88.225500 85.905000 -91.058300 8.984550 -0.406207 -0.000000 0.424519 -0.072216 -5.661150 16.377300 -0.000001 -0.000001 1.953210 -4.455060 4.650250 6.456720 -0.000001 -0.000000 -4.644460 -3.777830 3.633720 12.994200 -0.242716 4.980390 -92.047100 5.077590 -68.008000 5.348090 -0.000007 -0.000001 -62.258400 11.685400 -0.621711 24.328600 0.000019 0.000005 9.131420 23.836700 -21.690200 22.291600 -0.000001 0.000005 14.328800 5.118970 4.675710 12.994500 -0.242716 -4.980390 92.959100 -8.355180 -70.419100 -5.348130 -0.000001 -0.000004 -21.959900 -57.307000 -47.469100 -24.328900 0.000322 -0.000009 -3.973860 -0.727387 -79.631600 -22.291500 -0.000108 -0.000004 22.670100 5.500000 -6.533020 -2.192480 -6.469440 -0.000000 -175.240000 -14.001500 -5.916900 39.081100 -0.000007 -0.000012 -0.009870 0.025179 21.403600 40.985400 -0.000006 -0.000013 2.287800 17.124100 -63.448600 11.754300 -0.000000 0.000003 -0.000044 -0.000511 -16.597400 -2.192510 6.469440 -0.000001 177.475000 28.266200 178.886000 -39.081100 -0.002282 -0.040193 0.007080 -0.011519 18.054600 -40.985400 0.000008 0.000006 5.598420 17.267100 -64.800600 -11.754300 -0.000006 -0.000006 -0.002948 -0.040014 -18.200400
0.000000 0.000000 0.000000 0.000000 0.000000 -0.000000 -0.183417 92.662800 -3.252300 88.355500 5.274800 3.012360 15.735700 0.000005 -0.000001 86.442300 85.771200 -89.053300 8.984550 -0.406207 -0.000000 0.672416 -0.363146 -5.215710 16.377300 -0.000001 -0.000001 1.793290 -4.037230 4.275470 6.456720 -0.000001 -0.000000 -4.308040 -3.304470 3.948600 12.994200 -0.242716 4.980390 -92.066300 5.150980 -68.107100 5.348090 -0.000007 -0.000001 -63.688500 13.284300 -1.353270 24.328600 0.000019 0.000005 8.810610 25.056100 -20.102100 22.291600 -0.000001 0.000005 13.968300 5.095170 5.224490 12.994500 -0.242716 -4.980390 92.171700 -6.868960 -72.410200 -5.348130 -0.000001 -0.000004 -21.478000 -50.621000 -40.970500 -24.328900 0.000322 -0.000009 -4.764570 -0.121026 -88.540200 -22.291500 -0.000108 -0.000004 22.599900 5.507430 -6.835540 -2.192480 -6.469440 -0.000000 -175.390000 -13.897800 -5.755600 39.081100 -0.000007 -0.000012 -0.010143 0.025597 21.616400 40.985400 -0.000006 -0.000013 2.265270 16.040800 -63.522700 11.754300 -0.000000 0.000003 -0.000042 -0.000488 -16.596500 -2.192510 6.469440 -0.000001 177.315000 27.479000 178.843000 -39.081100 -0.002282 -0.040193 0.007488 -0.012660 18.205100 -40.985400 0.000008 0.000006 5.549140 17.486000 -64.823300 -11.754300 -0.000006 -0.000006 -0.003263 -0.043543 -18.344000
